<svg width="44" height="32" viewBox="0 0 44 32" fill="none" xmlns="http://www.w3.org/2000/svg">
<rect width="44" height="32" rx="6" fill="#FFECE5"/>
<path d="M17.8757 10.6967C17.5503 10.3713 17.0226 10.3713 16.6972 10.6967C16.3718 11.0222 16.3718 11.5498 16.6972 11.8752L20.822 16L16.6972 20.1248C16.3718 20.4502 16.3718 20.9779 16.6972 21.3033C17.0226 21.6288 17.5503 21.6288 17.8757 21.3033L22.0005 17.1785L26.1253 21.3033C26.4507 21.6288 26.9784 21.6288 27.3038 21.3033C27.6292 20.9779 27.6292 20.4502 27.3038 20.1248L23.179 16L27.3038 11.8752C27.6292 11.5498 27.6292 11.0222 27.3038 10.6967C26.9784 10.3713 26.4507 10.3713 26.1253 10.6967L22.0005 14.8215L17.8757 10.6967Z" fill="#D42620"/>
</svg>
