<svg width="12" height="18" viewBox="0 0 12 18" fill="none" xmlns="http://www.w3.org/2000/svg">
<path d="M3.91415 0.458496C3.56776 0.458496 3.2575 0.67277 3.13482 0.996706L2.9435 1.50194C2.53335 1.46096 2.15545 1.42005 1.84954 1.3857C1.62087 1.36003 1.43289 1.33807 1.30231 1.32256L1.15169 1.30448L1.10053 1.29823C0.643792 1.24167 0.227027 1.56601 0.170466 2.02275C0.113905 2.4795 0.438321 2.89562 0.895069 2.95218L0.950729 2.95899L1.10571 2.97759C1.23933 2.99346 1.43089 3.01584 1.66358 3.04196C2.12855 3.09417 2.75963 3.16157 3.42174 3.22199C4.31489 3.30351 5.29392 3.37516 5.99748 3.37516C6.70105 3.37516 7.68007 3.30351 8.57322 3.22199C9.23534 3.16157 9.86642 3.09417 10.3314 3.04196C10.5641 3.01584 10.7556 2.99346 10.8893 2.97759L11.0442 2.95899L11.0998 2.95219C11.5565 2.89563 11.8811 2.4795 11.8245 2.02275C11.7679 1.56601 11.3518 1.24159 10.8951 1.29814L10.8433 1.30448L10.6927 1.32256C10.5621 1.33807 10.3741 1.36003 10.1454 1.3857C9.83951 1.42005 9.46162 1.46096 9.05147 1.50194L8.86014 0.996706C8.73747 0.67277 8.4272 0.458496 8.08082 0.458496H3.91415Z" fill="#D42620"/>
<path d="M5.16415 8.79183C5.16415 8.33159 4.79105 7.9585 4.33082 7.9585C3.87058 7.9585 3.49748 8.33159 3.49748 8.79183V12.9585C3.49748 13.4187 3.87058 13.7918 4.33082 13.7918C4.79105 13.7918 5.16415 13.4187 5.16415 12.9585V8.79183Z" fill="#D42620"/>
<path d="M7.66415 7.9585C8.12439 7.9585 8.49748 8.33159 8.49748 8.79183V12.9585C8.49748 13.4187 8.12439 13.7918 7.66415 13.7918C7.20391 13.7918 6.83082 13.4187 6.83082 12.9585V8.79183C6.83082 8.33159 7.20391 7.9585 7.66415 7.9585Z" fill="#D42620"/>
<path fill-rule="evenodd" clip-rule="evenodd" d="M11.7555 5.70896C11.831 4.65166 10.9195 3.80402 9.88356 3.92374C8.82353 4.04625 7.18777 4.2085 5.99748 4.2085C4.8072 4.2085 3.17143 4.04625 2.1114 3.92374C1.07546 3.80402 0.163918 4.65165 0.23944 5.70896L0.953385 15.7042C1.0075 16.4619 1.57187 17.1025 2.34635 17.219C3.17686 17.3438 4.70077 17.5433 5.99845 17.5418C7.28018 17.5403 8.81029 17.3417 9.64445 17.218C10.4203 17.1029 10.9875 16.4618 11.0417 15.7019L11.7555 5.70896ZM10.0749 5.57939C10.0778 5.57906 10.08 5.57925 10.08 5.57925L10.0822 5.57976C10.0841 5.5804 10.087 5.58192 10.0898 5.58464C10.0917 5.58644 10.0932 5.58864 10.0932 5.58864L10.0931 5.59022L9.38009 15.5723C8.55452 15.6943 7.13959 15.8738 5.99652 15.8752C4.84106 15.8765 3.43488 15.6967 2.61499 15.5739L1.90187 5.59022L1.90181 5.58864C1.90181 5.58864 1.90323 5.58644 1.90513 5.58464C1.908 5.58192 1.91091 5.5804 1.91276 5.57976L1.91496 5.57925C1.91496 5.57925 1.91718 5.57906 1.92007 5.57939C2.98197 5.70211 4.70202 5.87516 5.99748 5.87516C7.29294 5.87516 9.01299 5.70211 10.0749 5.57939Z" fill="#D42620"/>
</svg>
