<svg width="56" height="44" viewBox="0 0 56 44" fill="none" xmlns="http://www.w3.org/2000/svg">
<rect width="56" height="44" rx="6" fill="#F7F9FC"/>
<path fill-rule="evenodd" clip-rule="evenodd" d="M35.1608 14.4251C34.0386 13.303 32.2192 13.303 31.0971 14.4251L23.9925 21.5297C23.4825 22.0397 23.1517 22.7013 23.0497 23.4153L22.8438 24.8564C22.6867 25.9564 23.6295 26.8992 24.7295 26.742L26.1706 26.5362C26.8846 26.4342 27.5462 26.1033 28.0562 25.5934L35.1608 18.4888C36.2829 17.3666 36.2829 15.5473 35.1608 14.4251ZM32.4502 15.4589C32.9199 15.1387 33.5655 15.1869 33.9823 15.6036C34.399 16.0203 34.4472 16.666 34.127 17.1357L32.4502 15.4589ZM31.2567 16.6225L32.9634 18.3292L26.8777 24.4148C26.6227 24.6698 26.2919 24.8353 25.9349 24.8863L24.4938 25.0921L24.6996 23.651C24.7506 23.294 24.916 22.9632 25.171 22.7082L31.2567 16.6225Z" fill="#1D2739"/>
<path d="M22.9974 13.6668C21.1564 13.6668 19.6641 15.1592 19.6641 17.0001V27.0001C19.6641 28.8411 21.1564 30.3335 22.9974 30.3335H32.9974C34.8383 30.3335 36.3307 28.8411 36.3307 27.0001V22.0001C36.3307 21.5399 35.9576 21.1668 35.4974 21.1668C35.0372 21.1668 34.6641 21.5399 34.6641 22.0001V27.0001C34.6641 27.9206 33.9179 28.6668 32.9974 28.6668H22.9974C22.0769 28.6668 21.3307 27.9206 21.3307 27.0001V17.0001C21.3307 16.0797 22.0769 15.3335 22.9974 15.3335H25.2342C25.6945 15.3335 26.0676 14.9604 26.0676 14.5001C26.0676 14.0399 25.6945 13.6668 25.2342 13.6668H22.9974Z" fill="#1D2739"/>
</svg>
