<svg width="148" height="148" viewBox="0 0 148 148" fill="none" xmlns="http://www.w3.org/2000/svg">
<path d="M95.4592 28.8635C95.4592 28.8635 79.6289 48.9152 54.3004 36.9545C28.9719 24.9938 3.64337 57.3581 25.4541 77.058C47.2647 96.7579 25.9214 107.583 40.7387 119.656C57.5795 133.379 72.2415 105.553 85.6093 111.885C115.113 125.86 136.97 120.328 132.045 104.145C123.4 75.7399 112.345 73.8919 120.788 59.117C129.231 44.342 110.597 13.6212 95.4592 28.8635Z" fill="#F3E1FF"/>
<path d="M86.8401 84.3213L85.5895 91.0357L79.6327 122.954L68.9023 120.95L75.7826 84.0793L76.1097 82.3223L86.8401 84.3213Z" fill="#C168FF"/>
<path d="M113.266 68.2649L109.566 88.1013C109.555 88.1594 109.533 88.2149 109.501 88.2644C109.469 88.314 109.427 88.3567 109.378 88.3902C109.329 88.4236 109.274 88.4471 109.217 88.4593C109.159 88.4715 109.099 88.4722 109.041 88.4613L57.0586 78.7661L63.1769 45.9619L102.65 53.3242C109.805 54.6582 114.557 61.3461 113.266 68.2649Z" fill="#DBA7FF"/>
<path d="M74.281 61.6075L70.6099 81.29L43.3242 76.2009L46.9952 56.5184C48.3468 49.2716 55.5509 44.536 63.0855 45.9412C70.6201 47.3465 75.6326 54.3605 74.281 61.6075Z" fill="#C168FF"/>
<path d="M86.9842 70.8082C84.9735 70.4332 83.6468 68.479 84.0255 66.4496C84.4041 64.4203 86.3458 63.0752 88.3565 63.4505C88.9975 63.5709 89.5952 63.8589 90.0887 64.2853C90.5822 64.7116 90.954 65.261 91.1663 65.8777L116.565 70.6149L115.879 74.2939L90.4802 69.5567C90.0599 70.0555 89.515 70.434 88.901 70.6539C88.2869 70.8737 87.6256 70.927 86.9842 70.8082Z" fill="#AF40FD"/>
<path d="M73.3746 61.9692L69.7979 81.1458L44.0938 76.3517L47.6707 57.175C48.9875 50.1145 55.8094 45.4638 62.9073 46.7876C70.0052 48.1115 74.6914 54.9086 73.3746 61.9692Z" fill="#AF40FD"/>
<path d="M87.7033 68.9495C88.7367 68.9495 89.5745 68.1117 89.5745 67.0783C89.5745 66.0448 88.7367 65.207 87.7033 65.207C86.6698 65.207 85.832 66.0448 85.832 67.0783C85.832 68.1117 86.6698 68.9495 87.7033 68.9495Z" fill="white"/>
<path d="M116.86 70.602L114.616 82.6313C114.607 82.6831 114.577 82.729 114.533 82.7588C114.49 82.7886 114.436 82.7999 114.385 82.7902L108.487 81.6902C108.477 81.6883 108.468 81.6824 108.462 81.6738C108.456 81.6653 108.454 81.6547 108.455 81.6445L110.728 69.4584C110.73 69.4482 110.736 69.4391 110.745 69.4333C110.753 69.4274 110.764 69.4251 110.774 69.427L116.829 70.5563C116.839 70.5582 116.848 70.5641 116.854 70.5727C116.86 70.5812 116.862 70.5918 116.86 70.602Z" fill="#C168FF"/>
<path d="M52.6017 69.4703C52.85 71.2973 54.8548 73.4688 54.8548 73.4688C51.7999 73.6853 50.1455 71.9577 49.4336 70.908C48.5535 71.1623 47.6489 71.3228 46.735 71.3869C40.4634 71.8314 35.0646 67.7369 34.6747 62.237C34.2847 56.737 39.0522 51.9218 45.3238 51.4774C51.5953 51.0329 56.9939 55.1272 57.3837 60.6272C57.6373 64.2048 55.7068 67.4931 52.6017 69.4703Z" fill="white"/>
<path d="M70.6377 81.3017C70.3536 82.0205 65.16 103.436 48.3533 100.301C29.9237 97.181 43.2542 76.1943 43.2542 76.1943L70.6377 81.3017Z" fill="#DBA7FF"/>
<path d="M46.0281 63.3189C46.8893 63.3189 47.5874 62.6207 47.5874 61.7595C47.5874 60.8983 46.8893 60.2002 46.0281 60.2002C45.1669 60.2002 44.4688 60.8983 44.4688 61.7595C44.4688 62.6207 45.1669 63.3189 46.0281 63.3189Z" fill="#C168FF"/>
<path d="M39.0492 62.6384C39.9156 62.6384 40.6179 61.9361 40.6179 61.0697C40.6179 60.2033 39.9156 59.501 39.0492 59.501C38.1828 59.501 37.4805 60.2033 37.4805 61.0697C37.4805 61.9361 38.1828 62.6384 39.0492 62.6384Z" fill="#C168FF"/>
<path d="M52.9437 63.9832C53.8101 63.9832 54.5125 63.2808 54.5125 62.4144C54.5125 61.548 53.8101 60.8457 52.9437 60.8457C52.0773 60.8457 51.375 61.548 51.375 62.4144C51.375 63.2808 52.0773 63.9832 52.9437 63.9832Z" fill="#C168FF"/>
<path d="M86.8427 84.3213L85.5921 91.0357L75.7852 84.0793L76.1123 82.3223L86.8427 84.3213Z" fill="#AF40FD"/>
</svg>
