<svg width="18" height="17" viewBox="0 0 18 17" fill="none" xmlns="http://www.w3.org/2000/svg">
<path fill-rule="evenodd" clip-rule="evenodd" d="M9.00182 6.14173C7.697 6.14173 6.64349 7.19524 6.64349 8.50007C6.64349 8.92538 6.7551 9.32215 6.95207 9.66594L10.1677 6.45031C9.8239 6.25334 9.42714 6.14173 9.00182 6.14173ZM5.39349 8.50007C5.39349 6.50489 7.00665 4.89173 9.00182 4.89173C10 4.89173 10.8986 5.29626 11.5521 5.94979C11.7962 6.19387 11.7962 6.5896 11.5521 6.83367L7.33543 11.0503C7.09135 11.2944 6.69563 11.2944 6.45155 11.0503C5.79802 10.3968 5.39349 9.49824 5.39349 8.50007Z" fill="#111827"/>
<path fill-rule="evenodd" clip-rule="evenodd" d="M0.883068 6.00587C2.8755 2.8739 5.79517 0.983398 9.00182 0.983398C10.8765 0.983398 12.673 1.63641 14.2282 2.80943C14.5038 3.01729 14.5587 3.40919 14.3508 3.68477C14.1429 3.96034 13.751 4.01523 13.4755 3.80737C12.1139 2.78039 10.5771 2.2334 9.00182 2.2334C6.32528 2.2334 3.76173 3.8094 1.93751 6.67718L1.93698 6.678C1.6415 7.14093 1.47266 7.8036 1.47266 8.50423C1.47266 9.20486 1.6415 9.86753 1.93698 10.3305C2.56513 11.3164 3.29275 12.1609 4.07601 12.8345C4.33772 13.0596 4.36742 13.4542 4.14236 13.7159C3.91729 13.9776 3.52267 14.0073 3.26097 13.7823C2.37757 13.0225 1.57157 12.0833 0.883043 11.0026C0.428731 10.2906 0.222656 9.37842 0.222656 8.50423C0.222656 7.63003 0.428738 6.71788 0.883068 6.00587Z" fill="#111827"/>
<path fill-rule="evenodd" clip-rule="evenodd" d="M15.3184 4.62139C15.5874 4.40505 15.9808 4.44771 16.1972 4.71667C16.5171 5.1144 16.8313 5.54178 17.1212 5.99851C17.5751 6.71038 17.781 7.62209 17.781 8.4959C17.781 9.3701 17.5749 10.2823 17.1206 10.9943C15.1281 14.1262 12.2085 16.0167 9.00182 16.0167C7.88804 16.0167 6.79751 15.7812 5.77595 15.3511C5.45783 15.2171 5.30852 14.8507 5.44247 14.5325C5.57642 14.2144 5.9429 14.0651 6.26103 14.199C7.13947 14.5689 8.0656 14.7667 9.00182 14.7667C11.6784 14.7667 14.2419 13.1907 16.0661 10.3229L16.0667 10.3221C16.3622 9.8592 16.531 9.19653 16.531 8.4959C16.531 7.79527 16.3622 7.1326 16.0667 6.66967L16.0658 6.66829C15.8056 6.25836 15.5199 5.86907 15.2231 5.50012C15.0068 5.23116 15.0495 4.83773 15.3184 4.62139Z" fill="#111827"/>
<path fill-rule="evenodd" clip-rule="evenodd" d="M12.0402 8.46876C12.3796 8.53136 12.6041 8.85728 12.5415 9.19674C12.2778 10.6266 11.12 11.7844 9.69016 12.048C9.35071 12.1106 9.02478 11.8862 8.96218 11.5467C8.89959 11.2073 9.12403 10.8814 9.46348 10.8188C10.3836 10.6491 11.1425 9.89019 11.3122 8.97006C11.3748 8.63061 11.7007 8.40617 12.0402 8.46876Z" fill="#111827"/>
<path fill-rule="evenodd" clip-rule="evenodd" d="M6.94377 10.5581C7.18784 10.8022 7.18784 11.1979 6.94377 11.442L2.7771 15.6087C2.53302 15.8528 2.13729 15.8528 1.89321 15.6087C1.64914 15.3646 1.64914 14.9689 1.89321 14.7248L6.05988 10.5581C6.30396 10.314 6.69969 10.314 6.94377 10.5581Z" fill="#111827"/>
<path fill-rule="evenodd" clip-rule="evenodd" d="M16.1104 1.39146C16.3545 1.63553 16.3545 2.03126 16.1104 2.27534L11.9438 6.44201C11.6997 6.68608 11.304 6.68608 11.0599 6.44201C10.8158 6.19793 10.8158 5.8022 11.0599 5.55812L15.2265 1.39146C15.4706 1.14738 15.8664 1.14738 16.1104 1.39146Z" fill="#111827"/>
</svg>
