<svg width="56" height="44" viewBox="0 0 56 44" fill="none" xmlns="http://www.w3.org/2000/svg">
<rect width="56" height="44" rx="6" fill="#FFECE5"/>
<path d="M25.9141 13.4585C25.5678 13.4585 25.2575 13.6728 25.1348 13.9967L24.9435 14.5019C24.5333 14.461 24.1555 14.4201 23.8495 14.3857C23.6209 14.36 23.4329 14.3381 23.3023 14.3226L23.1517 14.3045L23.1005 14.2982C22.6438 14.2417 22.227 14.566 22.1705 15.0227C22.1139 15.4795 22.4383 15.8956 22.8951 15.9522L22.9507 15.959L23.1057 15.9776C23.2393 15.9935 23.4309 16.0158 23.6636 16.042C24.1285 16.0942 24.7596 16.1616 25.4217 16.222C26.3149 16.3035 27.2939 16.3752 27.9975 16.3752C28.701 16.3752 29.6801 16.3035 30.5732 16.222C31.2353 16.1616 31.8664 16.0942 32.3314 16.042C32.5641 16.0158 32.7556 15.9935 32.8893 15.9776L33.0442 15.959L33.0998 15.9522C33.5565 15.8956 33.8811 15.4795 33.8245 15.0227C33.7679 14.566 33.3518 14.2416 32.8951 14.2981L32.8433 14.3045L32.6927 14.3226C32.5621 14.3381 32.3741 14.36 32.1454 14.3857C31.8395 14.4201 31.4616 14.461 31.0515 14.5019L30.8601 13.9967C30.7375 13.6728 30.4272 13.4585 30.0808 13.4585H25.9141Z" fill="#D42620"/>
<path d="M27.1641 21.7918C27.1641 21.3316 26.7911 20.9585 26.3308 20.9585C25.8706 20.9585 25.4975 21.3316 25.4975 21.7918V25.9585C25.4975 26.4187 25.8706 26.7918 26.3308 26.7918C26.7911 26.7918 27.1641 26.4187 27.1641 25.9585V21.7918Z" fill="#D42620"/>
<path d="M29.6641 20.9585C30.1244 20.9585 30.4975 21.3316 30.4975 21.7918V25.9585C30.4975 26.4187 30.1244 26.7918 29.6641 26.7918C29.2039 26.7918 28.8308 26.4187 28.8308 25.9585V21.7918C28.8308 21.3316 29.2039 20.9585 29.6641 20.9585Z" fill="#D42620"/>
<path fill-rule="evenodd" clip-rule="evenodd" d="M33.7555 18.709C33.831 17.6517 32.9195 16.804 31.8836 16.9237C30.8235 17.0462 29.1878 17.2085 27.9975 17.2085C26.8072 17.2085 25.1714 17.0462 24.1114 16.9237C23.0755 16.804 22.1639 17.6517 22.2394 18.709L22.9534 28.7042C23.0075 29.4619 23.5719 30.1025 24.3464 30.219C25.1769 30.3438 26.7008 30.5433 27.9984 30.5418C29.2802 30.5403 30.8103 30.3417 31.6445 30.218C32.4203 30.1029 32.9875 29.4618 33.0417 28.7019L33.7555 18.709ZM32.0749 18.5794C32.0778 18.5791 32.08 18.5793 32.08 18.5793L32.0822 18.5798C32.0841 18.5804 32.087 18.5819 32.0898 18.5846C32.0917 18.5864 32.0932 18.5886 32.0932 18.5886L32.0931 18.5902L31.3801 28.5723C30.5545 28.6943 29.1396 28.8738 27.9965 28.8752C26.8411 28.8765 25.4349 28.6967 24.615 28.5739L23.9019 18.5902L23.9018 18.5886C23.9018 18.5886 23.9032 18.5864 23.9051 18.5846C23.908 18.5819 23.9109 18.5804 23.9128 18.5798L23.915 18.5793C23.915 18.5793 23.9172 18.5791 23.9201 18.5794C24.982 18.7021 26.702 18.8752 27.9975 18.8752C29.2929 18.8752 31.013 18.7021 32.0749 18.5794Z" fill="#D42620"/>
</svg>
