<svg width="22" height="22" viewBox="0 0 22 22" fill="none" xmlns="http://www.w3.org/2000/svg">
<path d="M20.6278 11.2139C20.6278 10.4225 20.5623 9.84497 20.4204 9.24609H11.1992V12.818H16.6119C16.5028 13.7057 15.9135 15.0425 14.604 15.9408L14.5856 16.0603L17.5012 18.2738L17.7032 18.2936C19.5583 16.6145 20.6278 14.1441 20.6278 11.2139Z" fill="#4285F4"/>
<path d="M11.1957 20.6248C13.8474 20.6248 16.0736 19.7692 17.6996 18.2934L14.6004 15.9405C13.7711 16.5073 12.6579 16.903 11.1957 16.903C8.59848 16.903 6.39414 15.224 5.60835 12.9033L5.49317 12.9129L2.46152 15.2122L2.42188 15.3202C4.03693 18.4644 7.35439 20.6248 11.1957 20.6248Z" fill="#920AF2"/>
<path d="M5.60908 12.9034C5.40174 12.3045 5.28175 11.6628 5.28175 10.9997C5.28175 10.3366 5.40174 9.695 5.59817 9.09612L5.59268 8.96857L2.52303 6.63232L2.42259 6.67914C1.75695 7.98388 1.375 9.44905 1.375 10.9997C1.375 12.5504 1.75695 14.0155 2.42259 15.3203L5.60908 12.9034Z" fill="#FBBC05"/>
<path d="M11.1957 5.09664C13.0399 5.09664 14.284 5.87733 14.9933 6.52974L17.7651 3.8775C16.0628 2.32681 13.8475 1.375 11.1957 1.375C7.35441 1.375 4.03694 3.53526 2.42188 6.6794L5.59746 9.09638C6.39416 6.77569 8.59851 5.09664 11.1957 5.09664Z" fill="#EB4335"/>
</svg>
