<svg width="51" height="64" viewBox="0 0 51 64" fill="none" xmlns="http://www.w3.org/2000/svg">
<mask id="mask0_1476_73456" style="mask-type:luminance" maskUnits="userSpaceOnUse" x="0" y="0" width="51" height="64">
<path d="M0.796875 0H50.2097V64H0.796875V0Z" fill="white"/>
</mask>
<g mask="url(#mask0_1476_73456)">
<path d="M0.921875 56.1752C0.921875 60.49 4.42882 64 8.74055 64H42.408C46.7197 64 50.2267 60.49 50.2267 56.1752V32.5988C50.2267 29.0887 47.8956 26.1574 44.7398 25.1667V19.179C44.7398 8.6088 36.1372 0 25.5747 0C15.0122 0 6.40953 8.6088 6.40953 19.179V25.1667C3.25289 26.1574 0.921875 29.0887 0.921875 32.5988V56.1752ZM28.6688 50.0023V50.7454C28.6688 52.4591 27.2868 53.8426 25.5747 53.8426C23.8625 53.8426 22.4797 52.4591 22.4797 50.7454V50.0023C19.695 48.8056 17.7143 46.0177 17.7143 42.7971C17.7143 38.4622 21.2421 34.9313 25.5747 34.9313C29.9064 34.9313 33.4342 38.4622 33.4342 42.7971C33.4342 46.0177 31.4535 48.8056 28.6688 50.0023ZM12.5986 19.179C12.5986 12.0154 18.4157 6.19367 25.5747 6.19367C32.7328 6.19367 38.5507 12.0154 38.5507 19.179V24.7739H12.5986V19.179Z" fill="#920AF2"/>
</g>
</svg>
