<svg width="81" height="59" viewBox="0 0 81 59" fill="none" xmlns="http://www.w3.org/2000/svg">
<path d="M80.5006 7.99965V50.6665C80.5006 51.1922 80.4495 51.712 80.3463 52.2271C80.244 52.7421 80.0916 53.2417 79.891 53.7269C79.6894 54.212 79.4425 54.6731 79.1503 55.109C78.858 55.5459 78.5262 55.9491 78.1539 56.3204L48.5002 26.6667L48.0469 26.0803L77.8337 2.6669L78.1539 2.34668C78.5262 2.71705 78.858 3.12118 79.1503 3.55713C79.4425 3.99406 79.6894 4.45413 79.891 4.93927C80.0916 5.42442 80.244 5.925 80.3463 6.44004C80.4495 6.95509 80.5006 7.47496 80.5006 7.99965Z" fill="#920AF2"/>
<path d="M3.16686 2.6669L32.9537 26.0803L32.5004 26.6667L2.84664 56.3204C2.47434 55.9491 2.14255 55.5459 1.85031 55.109C1.55806 54.6731 1.31115 54.212 1.10957 53.7269C0.908951 53.2417 0.756559 52.7421 0.654321 52.2271C0.551119 51.712 0.5 51.1922 0.5 50.6665V7.99965C0.5 7.47496 0.551119 6.95509 0.654321 6.44004C0.756559 5.925 0.908951 5.42442 1.10957 4.93927C1.31115 4.45413 1.55806 3.99406 1.85031 3.55713C2.14255 3.12118 2.47434 2.71705 2.84664 2.34668L3.16686 2.6669Z" fill="#920AF2"/>
<path d="M48.5006 26.6665L78.1544 56.3202C77.784 56.6916 77.3799 57.0243 76.9439 57.3166C76.507 57.6088 76.0469 57.8557 75.5618 58.0563C75.0766 58.2579 74.576 58.4103 74.061 58.5126C73.546 58.6148 73.0261 58.6669 72.5014 58.6669H8.50063C7.97594 58.6669 7.45607 58.6148 6.94102 58.5126C6.42597 58.4103 5.9254 58.2579 5.44025 58.0563C4.9551 57.8557 4.49503 57.6088 4.05811 57.3166C3.62215 57.0243 3.21803 56.6916 2.84766 56.3202L32.5014 26.6665L32.9547 26.0801L40.501 32.0002L48.0473 26.0801L48.5006 26.6665Z" fill="#C373FB"/>
<path d="M72.5014 0C73.0261 0 73.546 0.0511188 74.061 0.154321C74.576 0.256559 75.0766 0.408951 75.5618 0.609568C76.0469 0.81115 76.507 1.05806 76.9439 1.35031C77.3799 1.64255 77.784 1.97434 78.1544 2.34664L77.8342 2.66686L48.0473 26.0802L40.501 32.0004L32.9547 26.0802L3.16787 2.66686L2.84766 2.34664C3.21803 1.97434 3.62215 1.64255 4.05811 1.35031C4.49503 1.05806 4.9551 0.81115 5.44025 0.609568C5.9254 0.408951 6.42597 0.256559 6.94102 0.154321C7.45607 0.0511188 7.97594 0 8.50063 0H72.5014Z" fill="#E4C5FA"/>
</svg>
