<svg width="105" height="104" viewBox="0 0 105 104" fill="none" xmlns="http://www.w3.org/2000/svg">
<g clip-path="url(#clip0_2696_45683)">
<path d="M102.443 31.1965C97.9018 19.6411 83.9128 12.7115 72.0645 17.2972C58.54 22.5318 63.0242 44.0433 50.7398 48.3932C44.1039 50.743 34.2944 41.9655 27.5898 40.6194C15.2356 38.1393 4.05152 46.8564 1.29755 58.9279C-1.51207 71.2434 2.99425 87.6924 16.5252 91.0351C32.6432 95.0167 41.039 80.5276 54.5602 76.3672C68.4356 72.0977 83.8636 82.181 95.3505 69.9127C103.837 60.8493 106.94 42.6389 102.443 31.1965Z" fill="url(#paint0_linear_2696_45683)"/>
<path opacity="0.1" d="M97.3587 36.2766C97.3587 28.2538 90.8548 21.7498 82.8318 21.7498C76.6162 21.7498 71.3148 25.6548 69.2407 31.1443H16.7109C14.4672 31.1443 12.6484 32.9631 12.6484 35.2068V80.1807C12.6484 82.4244 14.4672 84.2432 16.7109 84.2432H88.2871C90.5308 84.2432 92.3496 82.4244 92.3496 80.1807V47.246C95.4166 44.5824 97.3587 40.6576 97.3587 36.2766Z" fill="#920AF2"/>
<path d="M88.2871 79.1651H16.7109C14.4672 79.1651 12.6484 77.3463 12.6484 75.1026V30.1287C12.6484 27.8849 14.4672 26.0662 16.7109 26.0662H88.2871C90.5308 26.0662 92.3496 27.8849 92.3496 30.1287V75.1026C92.3496 77.3463 90.5308 79.1651 88.2871 79.1651Z" fill="white"/>
<path d="M53.7366 45.4412L92.3498 75.1026C92.3498 77.3463 90.531 79.1651 88.2873 79.1651H16.7109C14.4672 79.1651 12.6484 77.3463 12.6484 75.1026L51.2617 45.4412C51.9915 44.8806 53.0067 44.8806 53.7366 45.4412Z" fill="white"/>
<path d="M51.2617 59.7902L12.6484 30.1287C12.6484 27.8849 14.4672 26.0662 16.7109 26.0662H88.2871C90.5308 26.0662 92.3496 27.8849 92.3496 30.1287L53.7366 59.7902C53.0067 60.3506 51.9915 60.3506 51.2617 59.7902Z" fill="white"/>
<path d="M75.8475 73.7597H69.3203C68.7593 73.7597 68.3047 73.3051 68.3047 72.744V68.244C68.3047 67.6832 68.7593 67.2284 69.3203 67.2284H75.8475C76.4086 67.2284 76.8632 67.6832 76.8632 68.244V72.744C76.8632 73.3051 76.4086 73.7597 75.8475 73.7597Z" fill="#D7B8ED"/>
<path d="M63.8489 69.6196H58.1953C57.6343 69.6196 57.1797 69.1648 57.1797 68.604C57.1797 68.0432 57.6343 67.5884 58.1953 67.5884H63.8489C64.4099 67.5884 64.8645 68.0432 64.8645 68.604C64.8645 69.1648 64.4099 69.6196 63.8489 69.6196Z" fill="#920AF2"/>
<path d="M63.8489 73.7598H43.9766C43.4155 73.7598 42.9609 73.305 42.9609 72.7441C42.9609 72.1833 43.4155 71.7285 43.9766 71.7285H63.8489C64.4099 71.7285 64.8645 72.1833 64.8645 72.7441C64.8645 73.3052 64.4099 73.7598 63.8489 73.7598Z" fill="#920AF2"/>
<path d="M97.1488 33.5244C98.4325 25.6058 93.0538 18.1458 85.1351 16.8621C77.2164 15.5784 69.7564 20.9571 68.4727 28.8758C67.1891 36.7945 72.5678 44.2545 80.4865 45.5382C88.4052 46.8218 95.8651 41.4431 97.1488 33.5244Z" fill="#D7B8ED"/>
<path d="M82.8318 46.741C91.4018 46.741 98.3743 39.7688 98.3743 31.1985C98.3743 22.6283 91.402 15.656 82.8318 15.656C74.2615 15.656 67.2893 22.6283 67.2893 31.1985C67.2893 36.184 69.6514 40.6256 73.3125 43.4715L53.1178 58.9846C52.754 59.2645 52.245 59.2647 51.8804 58.9846L13.7006 29.6562C13.9283 28.1998 15.1918 27.0818 16.7109 27.0818H63.3009C63.8619 27.0818 64.3165 26.627 64.3165 26.0662C64.3165 25.5053 63.8619 25.0505 63.3009 25.0505H16.7109C13.9109 25.0505 11.6328 27.3286 11.6328 30.1287V75.1026C11.6328 77.9026 13.9109 80.1807 16.7109 80.1807H88.2871C91.0872 80.1807 93.3652 77.9026 93.3652 75.1026V48.2616C93.3652 47.7008 92.9106 47.246 92.3496 47.246C91.7886 47.246 91.334 47.7008 91.334 48.2616V73.0417L64.7435 52.6156L75.0907 44.6673C77.3718 45.9836 80.0142 46.741 82.8318 46.741ZM40.2548 52.6156L13.6641 73.0417V32.1896L40.2548 52.6156ZM91.294 75.5724C91.0669 77.0296 89.8071 78.1494 88.2871 78.1494H16.7109C15.191 78.1494 13.9312 77.0296 13.7041 75.5724L41.922 53.8963L50.643 60.5954C51.1894 61.015 51.8443 61.2251 52.4991 61.2251C53.154 61.2251 53.8087 61.0152 54.3553 60.5954L63.0763 53.8961L91.294 75.5724ZM69.3205 31.1985C69.3205 23.7485 75.3816 17.6873 82.8318 17.6873C90.282 17.6873 96.343 23.7483 96.343 31.1985C96.343 38.6485 90.282 44.7098 82.8318 44.7098C75.3816 44.7098 69.3205 38.6485 69.3205 31.1985Z" fill="#920AF2"/>
<path d="M76.4879 26.2445L78.561 31.1986L76.4879 36.1526C76.1359 36.9939 76.9852 37.8369 77.8239 37.4786L90.3402 32.1325C91.1625 31.7813 91.1625 30.6158 90.3402 30.2646L77.8239 24.9185C76.9852 24.5602 76.1359 25.4032 76.4879 26.2445Z" fill="white"/>
<path d="M67.7018 16.5894C66.9474 16.5894 66.1932 16.3024 65.6192 15.7281C64.4707 14.5797 64.4707 12.7111 65.6192 11.5629C66.767 10.4148 68.636 10.4144 69.7842 11.5629C70.9327 12.7113 70.9327 14.5799 69.7842 15.7281C69.2102 16.3024 68.456 16.5894 67.7018 16.5894ZM67.7018 12.7318C67.4678 12.7318 67.2336 12.8208 67.0553 12.9992C66.699 13.3554 66.699 13.9354 67.0553 14.2918C67.4119 14.6481 67.9913 14.6483 68.3479 14.2918C68.7042 13.9356 68.7042 13.3556 68.3479 12.9992C68.1698 12.821 67.9356 12.7318 67.7018 12.7318Z" fill="#D7B8ED"/>
<path d="M44.8893 93.2984C44.1351 93.2984 43.3807 93.0112 42.8067 92.4371C41.6582 91.2887 41.6582 89.4201 42.8067 88.2718C43.9547 87.1236 45.8239 87.1236 46.9719 88.2718C48.1204 89.4203 48.1204 91.2889 46.9719 92.4371C46.3979 93.0114 45.6435 93.2984 44.8893 93.2984ZM44.8893 89.4408C44.6553 89.4408 44.4211 89.5298 44.2428 89.7081C43.8865 90.0644 43.8865 90.6443 44.2428 91.0008C44.5994 91.3573 45.179 91.3573 45.5356 91.0008C45.8919 90.6445 45.8919 90.0646 45.5356 89.7081C45.3575 89.53 45.1233 89.4408 44.8893 89.4408Z" fill="#D7B8ED"/>
<path d="M60.3749 19.2049C60.1152 19.2049 59.8549 19.1057 59.6569 18.9075L58.4453 17.6961L57.2336 18.9075C56.8373 19.304 56.1938 19.304 55.7975 18.9075C55.4008 18.5108 55.4008 17.8677 55.7975 17.4712L57.7272 15.5415C58.1235 15.145 58.767 15.145 59.1633 15.5415L61.093 17.4712C61.4897 17.8679 61.4897 18.511 61.093 18.9075C60.895 19.1055 60.635 19.2049 60.3749 19.2049Z" fill="#D7B8ED"/>
<path d="M89.8203 89.4403C89.5605 89.4403 89.3003 89.3412 89.1022 89.143L87.8906 87.9315L86.6789 89.143C86.2826 89.5395 85.6391 89.5395 85.2428 89.143C84.8461 88.7463 84.8461 88.1032 85.2428 87.7067L87.1725 85.777C87.5688 85.3805 88.2123 85.3805 88.6086 85.777L90.5383 87.7067C90.935 88.1034 90.935 88.7465 90.5383 89.143C90.3403 89.341 90.0801 89.4403 89.8203 89.4403Z" fill="#D7B8ED"/>
<path d="M36.8359 90.4052C36.5761 90.4052 36.3159 90.3061 36.1178 90.1078L34.9062 88.8964L33.6946 90.1078C33.2983 90.5043 32.6548 90.5043 32.2585 90.1078C31.8618 89.7111 31.8618 89.068 32.2585 88.6715L34.1882 86.7418C34.5844 86.3453 35.228 86.3453 35.6242 86.7418L37.5539 88.6715C37.9506 89.0682 37.9506 89.7113 37.5539 90.1078C37.3557 90.3059 37.0957 90.4052 36.8359 90.4052Z" fill="#D7B8ED"/>
</g>
<defs>
<linearGradient id="paint0_linear_2696_45683" x1="88.3179" y1="102.1" x2="40.7867" y2="39.1311" gradientUnits="userSpaceOnUse">
<stop stop-color="#D7B8ED" stop-opacity="0"/>
<stop offset="1" stop-color="#D7B8ED"/>
</linearGradient>
<clipPath id="clip0_2696_45683">
<rect width="104" height="104" fill="white" transform="translate(0.5)"/>
</clipPath>
</defs>
</svg>
