<svg width="265" height="166" viewBox="0 0 265 166" fill="none" xmlns="http://www.w3.org/2000/svg">
<path d="M91.5681 9.64897C91.5681 13.8265 98.2639 17.213 93.6045 17.213C88.9451 17.213 85.168 13.8265 85.168 9.64897C85.168 5.47148 88.9451 2.08496 93.6045 2.08496C98.2639 2.08496 91.5681 5.47148 91.5681 9.64897Z" fill="#FE964A"/>
<path d="M157.73 6L158.862 9.4844H162.526L159.562 11.6379L160.694 15.1223L157.73 12.9688L154.766 15.1223L155.898 11.6379L152.934 9.4844H156.598L157.73 6Z" fill="#FE964A"/>
<path d="M33.878 79.6555C33.878 79.6555 44.626 74.3022 47.0643 77.1081C48.4038 78.6496 49.4154 80.5166 48.2157 82.0335C47.2909 83.2028 45.9558 83.3519 44.3914 83.0771C41.0786 82.4954 41.1288 77.8949 42.4586 75.0457C44.2947 71.1119 54.0412 73.4338 54.0412 73.4338" stroke="#920AF2" stroke-width="2.01707"/>
<circle cx="228.715" cy="74.2923" r="5.88312" fill="#FFEDEC"/>
<path d="M55.5469 135.99L56.384 128.77L62.2194 132.47L62.8846 126.413L68.2074 130.08L69.8651 123.532" stroke="#920AF2" stroke-width="1.68089"/>
<path d="M192.802 21.9252C192.802 21.9252 191.984 17.0644 194.332 16.0956C196.305 15.2817 198.015 18.8811 199.636 17.5761C201.278 16.2543 197.179 14.1603 198.514 12.5794C199.919 10.9155 204.43 12.5794 204.43 12.5794" stroke="#920AF2" stroke-width="2.01707"/>
<path d="M32.4537 14.6399L54.0601 25.3961L48.6599 32.7604L32.4537 14.6399Z" fill="#920AF2"/>
<circle cx="223.846" cy="94.3124" r="2.52134" fill="#FFEDEC"/>
<path d="M199.616 127.502C202.387 127.781 205.081 123.565 204.77 126.656C204.459 129.747 201.96 132.026 199.189 131.747C196.418 131.468 194.424 128.737 194.735 125.646C195.046 122.555 196.845 127.223 199.616 127.502Z" fill="#920AF2"/>
<path d="M208.611 38.9932L210.498 44.8005H216.605L211.665 48.3896L213.552 54.197L208.611 50.6078L203.671 54.197L205.558 48.3896L200.618 44.8005H206.725L208.611 38.9932Z" fill="#920AF2"/>
<rect x="82.3008" y="25.8232" width="100" height="100" rx="50" fill="#920AF2"/>
<g filter="url(#filter0_d_222_63936)">
<rect x="102.301" y="45.8232" width="60" height="60" rx="30" fill="white" shape-rendering="crispEdges"/>
<path fill-rule="evenodd" clip-rule="evenodd" d="M143.185 68.6894C143.673 69.1775 143.673 69.969 143.185 70.4571L130.685 82.9571C130.197 83.4453 129.405 83.4453 128.917 82.9571L122.667 76.7071C122.179 76.219 122.179 75.4275 122.667 74.9394C123.155 74.4512 123.947 74.4512 124.435 74.9394L129.801 80.3055L141.417 68.6894C141.905 68.2012 142.697 68.2012 143.185 68.6894Z" fill="#111827"/>
</g>
<defs>
<filter id="filter0_d_222_63936" x="62.3008" y="25.8232" width="140" height="140" filterUnits="userSpaceOnUse" color-interpolation-filters="sRGB">
<feFlood flood-opacity="0" result="BackgroundImageFix"/>
<feColorMatrix in="SourceAlpha" type="matrix" values="0 0 0 0 0 0 0 0 0 0 0 0 0 0 0 0 0 0 127 0" result="hardAlpha"/>
<feOffset dy="20"/>
<feGaussianBlur stdDeviation="20"/>
<feComposite in2="hardAlpha" operator="out"/>
<feColorMatrix type="matrix" values="0 0 0 0 0 0 0 0 0 0 0 0 0 0 0 0 0 0 0.3 0"/>
<feBlend mode="normal" in2="BackgroundImageFix" result="effect1_dropShadow_222_63936"/>
<feBlend mode="normal" in="SourceGraphic" in2="effect1_dropShadow_222_63936" result="shape"/>
</filter>
</defs>
</svg>
