<svg width="18" height="23" viewBox="0 0 18 23" fill="none" xmlns="http://www.w3.org/2000/svg">
<path fill-rule="evenodd" clip-rule="evenodd" d="M5.05817 21.6137L5.42193 19.2256L4.61161 19.2061H0.742188L3.4313 1.58286C3.43968 1.52949 3.46676 1.47995 3.50631 1.44471C3.54606 1.40947 3.59671 1.39014 3.64971 1.39014H10.1741C12.3403 1.39014 13.8351 1.85592 14.6154 2.77542C14.9813 3.20677 15.2143 3.65765 15.3271 4.15365C15.4454 4.67421 15.4474 5.29607 15.332 6.05466L15.3236 6.10983V6.59596L15.6895 6.81023C15.9976 6.97918 16.2425 7.17251 16.4303 7.39382C16.7432 7.76274 16.9456 8.23155 17.0312 8.78716C17.1196 9.35867 17.0904 10.0389 16.9456 10.809C16.7787 11.6947 16.5088 12.4661 16.1443 13.0972C15.8092 13.6788 15.3821 14.1613 14.8749 14.5351C14.3908 14.8903 13.8156 15.16 13.1653 15.3325C12.535 15.5021 11.8164 15.5877 11.0283 15.5877H10.5206C10.1576 15.5877 9.80493 15.7228 9.52807 15.9651C9.25043 16.2124 9.0669 16.5503 9.01059 16.9198L8.97221 17.1349L8.32945 21.3443L8.30042 21.4987C8.29262 21.5477 8.27938 21.572 8.25989 21.5886C8.24255 21.6037 8.21761 21.6137 8.19326 21.6137H5.05817Z" fill="#28356A"/>
<path fill-rule="evenodd" clip-rule="evenodd" d="M16.0318 6.16455C16.0125 6.29323 15.9901 6.42473 15.9652 6.55986C15.1048 11.1259 12.161 12.7033 8.40146 12.7033H6.48721C6.0274 12.7033 5.63987 13.0483 5.56837 13.5171L4.31071 21.7625C4.26414 22.0704 4.49366 22.3477 4.79409 22.3477H8.18929C8.59123 22.3477 8.93278 22.0458 8.9961 21.636L9.02942 21.4578L9.66867 17.2649L9.70978 17.0349C9.77232 16.6237 10.1146 16.3217 10.5166 16.3217H11.0243C14.3137 16.3217 16.8889 14.9414 17.6415 10.9469C17.9558 9.27826 17.7931 7.88492 16.9612 6.90502C16.7094 6.6096 16.3971 6.36432 16.0318 6.16455Z" fill="#298FC2"/>
<path fill-rule="evenodd" clip-rule="evenodd" d="M15.126 5.79392C14.9945 5.75424 14.8589 5.7184 14.7197 5.68598C14.5799 5.65436 14.4366 5.62637 14.2892 5.6018C13.773 5.51561 13.2074 5.47473 12.6017 5.47473H7.48786C7.3618 5.47473 7.24217 5.50413 7.13521 5.5573C6.89926 5.6745 6.72411 5.90528 6.68163 6.18781L5.59367 13.3097L5.5625 13.5174C5.634 13.0486 6.02153 12.7036 6.48134 12.7036H8.3956C12.1551 12.7036 15.0989 11.1254 15.9593 6.56016C15.985 6.42503 16.0066 6.29353 16.0259 6.16485C15.8083 6.04544 15.5725 5.94334 15.3187 5.85634C15.2559 5.8348 15.1912 5.81405 15.126 5.79392Z" fill="#22284F"/>
<path fill-rule="evenodd" clip-rule="evenodd" d="M6.68726 6.18742C6.72974 5.90488 6.90489 5.67411 7.14084 5.55771C7.24858 5.50434 7.36743 5.47494 7.49349 5.47494H12.6073C13.2131 5.47494 13.7787 5.51602 14.2948 5.60221C14.4423 5.62658 14.5855 5.65477 14.7254 5.68639C14.8645 5.71861 15.0001 5.75466 15.1316 5.79413C15.1969 5.81426 15.2616 5.83521 15.3249 5.85595C15.5787 5.94295 15.8147 6.04585 16.0323 6.16446C16.2883 4.47712 16.0302 3.32825 15.1476 2.28794C14.1744 1.1425 12.4181 0.652344 10.1707 0.652344H3.64608C3.18705 0.652344 2.79543 0.997304 2.72451 1.46692L0.00695487 19.2713C-0.0466247 19.6236 0.216208 19.9413 0.559896 19.9413H4.58791L6.68726 6.18742Z" fill="#28356A"/>
</svg>
