<svg width="32" height="42" viewBox="0 0 32 42" fill="none" xmlns="http://www.w3.org/2000/svg">
<path d="M3.94141 6.25C3.94141 2.93629 6.6277 0.25 9.94141 0.25H18.6147L27.5643 9.55682V25.75C27.5643 29.0637 24.878 31.75 21.5643 31.75H9.94141C6.6277 31.75 3.94141 29.0637 3.94141 25.75V6.25Z" fill="#FF464B"/>
<path d="M18.6133 9.55682V0.25L27.5621 9.55682H18.6133Z" fill="#FF8689"/>
<path d="M11.832 20.5771C12.737 20.5771 13.4141 20.7741 13.8633 21.168C14.3158 21.5618 14.542 22.1217 14.542 22.8477C14.542 23.1732 14.4948 23.4857 14.4004 23.7852C14.3092 24.0846 14.1579 24.3516 13.9463 24.5859C13.738 24.8203 13.4596 25.0059 13.1113 25.1426C12.7663 25.2793 12.3398 25.3477 11.832 25.3477H11.29V27.7158H9.36133V20.5771H11.832ZM11.7881 22.1348H11.29V23.7754H11.6709C11.8369 23.7754 11.9915 23.7477 12.1348 23.6924C12.278 23.6338 12.3919 23.541 12.4766 23.4141C12.5645 23.2839 12.6084 23.1113 12.6084 22.8965C12.6084 22.6719 12.5417 22.4896 12.4082 22.3496C12.2747 22.2064 12.068 22.1348 11.7881 22.1348ZM21.5393 23.9951C21.5393 24.8252 21.3846 25.5153 21.0754 26.0654C20.7661 26.6156 20.3299 27.029 19.7668 27.3057C19.2069 27.5791 18.5477 27.7158 17.7893 27.7158H15.4797V20.5771H17.9504C18.7186 20.5771 19.3697 20.709 19.9035 20.9727C20.4374 21.2363 20.8426 21.6221 21.1193 22.1299C21.3993 22.6377 21.5393 23.2594 21.5393 23.9951ZM19.5373 24.0635C19.5373 23.6305 19.4787 23.2725 19.3615 22.9893C19.2476 22.7028 19.0751 22.4896 18.8439 22.3496C18.6128 22.2064 18.3215 22.1348 17.9699 22.1348H17.4084V26.1338H17.8381C18.424 26.1338 18.8537 25.9645 19.1271 25.626C19.4006 25.2842 19.5373 24.7633 19.5373 24.0635ZM11.2607 41.7158H9.36133V34.5771H13.5801V36.125H11.2607V37.4873H13.3994V39.0352H11.2607V41.7158Z" fill="white"/>
</svg>
