<svg width="20" height="20" viewBox="0 0 20 20" fill="none" xmlns="http://www.w3.org/2000/svg">
<g clip-path="url(#clip0_3619_12271)">
<path fill-rule="evenodd" clip-rule="evenodd" d="M10.0013 3.33398C10.4615 3.33398 10.8346 3.70708 10.8346 4.16732V15.834C10.8346 16.2942 10.4615 16.6673 10.0013 16.6673C9.54106 16.6673 9.16797 16.2942 9.16797 15.834V4.16732C9.16797 3.70708 9.54106 3.33398 10.0013 3.33398Z" fill="#920AF2"/>
<path fill-rule="evenodd" clip-rule="evenodd" d="M3.33203 9.99935C3.33203 9.53911 3.70513 9.16602 4.16536 9.16602H15.832C16.2923 9.16602 16.6654 9.53911 16.6654 9.99935C16.6654 10.4596 16.2923 10.8327 15.832 10.8327H4.16536C3.70513 10.8327 3.33203 10.4596 3.33203 9.99935Z" fill="#920AF2"/>
</g>
<defs>
<clipPath id="clip0_3619_12271">
<rect width="20" height="20" fill="white"/>
</clipPath>
</defs>
</svg>
