<svg width="51" height="64" viewBox="0 0 51 64" fill="none" xmlns="http://www.w3.org/2000/svg">
<path d="M0.916016 56.1752C0.916016 60.49 4.42296 64 8.73469 64H42.4021C46.7139 64 50.2208 60.49 50.2208 56.1752V32.5988C50.2208 29.0887 47.8898 26.1574 44.7339 25.1667V19.179C44.7339 8.6088 36.1313 0 25.5688 0C15.0063 0 6.40367 8.6088 6.40367 19.179V25.1667C3.24703 26.1574 0.916016 29.0887 0.916016 32.5988V56.1752ZM28.6629 50.0023V50.7454C28.6629 52.4591 27.281 53.8426 25.5688 53.8426C23.8566 53.8426 22.4739 52.4591 22.4739 50.7454V50.0023C19.6892 48.8056 17.7085 46.0177 17.7085 42.7971C17.7085 38.4622 21.2362 34.9313 25.5688 34.9313C29.9006 34.9313 33.4284 38.4622 33.4284 42.7971C33.4284 46.0177 31.4477 48.8056 28.6629 50.0023ZM12.5927 19.179C12.5927 12.0154 18.4098 6.19367 25.5688 6.19367C32.727 6.19367 38.5449 12.0154 38.5449 19.179V24.7739H12.5927V19.179Z" fill="#920AF2"/>
</svg>
