<svg width="14" height="15" viewBox="0 0 14 15" fill="none" xmlns="http://www.w3.org/2000/svg">
<path d="M6.9987 0.833008C3.32536 0.833008 0.332031 3.82634 0.332031 7.49967C0.332031 11.173 3.32536 14.1663 6.9987 14.1663C10.672 14.1663 13.6654 11.173 13.6654 7.49967C13.6654 3.82634 10.672 0.833008 6.9987 0.833008ZM10.1854 5.96634L6.40536 9.74634C6.31203 9.83967 6.18536 9.89301 6.05203 9.89301C5.9187 9.89301 5.79203 9.83967 5.6987 9.74634L3.81203 7.85967C3.6187 7.66634 3.6187 7.34634 3.81203 7.15301C4.00536 6.95967 4.32536 6.95967 4.5187 7.15301L6.05203 8.68634L9.4787 5.25968C9.67203 5.06634 9.99203 5.06634 10.1854 5.25968C10.3787 5.45301 10.3787 5.76634 10.1854 5.96634Z" fill="#27AE60"/>
</svg>
