<svg width="15" height="15" viewBox="0 0 15 15" fill="none" xmlns="http://www.w3.org/2000/svg">
<path d="M7.4987 0.833008C3.82536 0.833008 0.832031 3.82634 0.832031 7.49967C0.832031 11.173 3.82536 14.1663 7.4987 14.1663C11.172 14.1663 14.1654 11.173 14.1654 7.49967C14.1654 3.82634 11.172 0.833008 7.4987 0.833008ZM9.7387 9.03301C9.93203 9.22634 9.93203 9.54634 9.7387 9.73967C9.6387 9.83967 9.51203 9.88634 9.38536 9.88634C9.2587 9.88634 9.13203 9.83967 9.03203 9.73967L7.4987 8.20634L5.96536 9.73967C5.86536 9.83967 5.7387 9.88634 5.61203 9.88634C5.48536 9.88634 5.3587 9.83967 5.2587 9.73967C5.06536 9.54634 5.06536 9.22634 5.2587 9.03301L6.79203 7.49967L5.2587 5.96634C5.06536 5.77301 5.06536 5.45301 5.2587 5.25968C5.45203 5.06634 5.77203 5.06634 5.96536 5.25968L7.4987 6.79301L9.03203 5.25968C9.22536 5.06634 9.54536 5.06634 9.7387 5.25968C9.93203 5.45301 9.93203 5.77301 9.7387 5.96634L8.20537 7.49967L9.7387 9.03301Z" fill="#BA1A1A"/>
</svg>
