<svg width="33" height="32" viewBox="0 0 33 32" fill="none" xmlns="http://www.w3.org/2000/svg">
<g clip-path="url(#clip0_3787_30001)">
<path d="M20.5 10.6667H20.5133" stroke="#4640DE" stroke-width="2" stroke-linecap="round" stroke-linejoin="round"/>
<path d="M23.1654 5.33325H9.83203C7.62289 5.33325 5.83203 7.12411 5.83203 9.33325V22.6666C5.83203 24.8757 7.62289 26.6666 9.83203 26.6666H23.1654C25.3745 26.6666 27.1654 24.8757 27.1654 22.6666V9.33325C27.1654 7.12411 25.3745 5.33325 23.1654 5.33325Z" stroke="#4640DE" stroke-width="2" stroke-linecap="round" stroke-linejoin="round"/>
<path d="M5.83203 19.9999L11.1654 14.6666C11.7734 14.0815 12.4632 13.7734 13.1654 13.7734C13.8675 13.7734 14.5573 14.0815 15.1654 14.6666L21.832 21.3333" stroke="#4640DE" stroke-width="2" stroke-linecap="round" stroke-linejoin="round"/>
<path d="M19.168 18.6667L20.5013 17.3334C21.1094 16.7482 21.7992 16.4402 22.5013 16.4402C23.2034 16.4402 23.8932 16.7482 24.5013 17.3334L27.168 20" stroke="#4640DE" stroke-width="2" stroke-linecap="round" stroke-linejoin="round"/>
</g>
<defs>
<clipPath id="clip0_3787_30001">
<rect width="32" height="32" fill="white" transform="translate(0.5)"/>
</clipPath>
</defs>
</svg>
