<svg width="9" height="11" viewBox="0 0 9 11" fill="none" xmlns="http://www.w3.org/2000/svg">
<path fill-rule="evenodd" clip-rule="evenodd" d="M4.5 0C3.11929 0 2 1.11929 2 2.5C2 3.88071 3.11929 5 4.5 5C5.88071 5 7 3.88071 7 2.5C7 1.11929 5.88071 0 4.5 0ZM3 2.5C3 1.67157 3.67157 1 4.5 1C5.32843 1 6 1.67157 6 2.5C6 3.32843 5.32843 4 4.5 4C3.67157 4 3 3.32843 3 2.5Z" fill="black"/>
<path fill-rule="evenodd" clip-rule="evenodd" d="M4.5 10.5C3.72975 10.5 2.61491 10.3251 1.77771 9.95869C1.36672 9.77881 0.948726 9.52136 0.705877 9.1487C0.578158 8.95272 0.497417 8.72185 0.500063 8.46411C0.502685 8.20872 0.58672 7.96404 0.727957 7.7364C1.41266 6.63281 2.8134 5.5 4.5 5.5C6.1866 5.5 7.58734 6.63281 8.27204 7.7364C8.41328 7.96404 8.49732 8.20872 8.49994 8.46411C8.50258 8.72186 8.42184 8.95272 8.29412 9.1487C8.05127 9.52136 7.63328 9.77881 7.22228 9.95869C6.38509 10.3251 5.27025 10.5 4.5 10.5ZM1.5777 8.2636C1.51186 8.36972 1.50039 8.43786 1.50001 8.47437C1.49966 8.50852 1.50843 8.54864 1.54368 8.60273C1.62677 8.73023 1.82854 8.88935 2.17866 9.04259C2.86372 9.34242 3.83662 9.5 4.5 9.5C5.16338 9.5 6.13628 9.34242 6.82134 9.04259C7.17146 8.88935 7.37323 8.73023 7.45632 8.60273C7.49157 8.54864 7.50034 8.50852 7.49999 8.47437C7.49962 8.43786 7.48814 8.36972 7.4223 8.2636C6.86123 7.35927 5.74217 6.5 4.5 6.5C3.25783 6.5 2.13877 7.35927 1.5777 8.2636Z" fill="black"/>
</svg>
